# xmcd CD database file
# Copyright (C) 1993-1996 Ti Kan
#
# Track frame offsets:
# 150
# 22414
# 38683
# 68195
# 82807
# 94644
# 113440
# 133369
# 153929
#
# Disc length: 2301 seconds
# Revision: 0
# Processed by: cddbd v1.4b41PL1 Copyright (c) Steve Scherf et al.
# Submitted via: CDSpectrumPro v3.2.327
#
DISCID=6b08fb09
DTITLE=SKWZBXX - Secret 68
DYEAR=1900
DGENRE=
TTITLE0=Radio Song
TTITLE1=Waxed
TTITLE2=I Got a Feelin'
TTITLE3=Thursday
TTITLE4=Dear Father
TTITLE5=The Healing
TTITLE6=Road Trip
TTITLE7=Brothel
TTITLE8=War on Peace
EXTD=
EXTT0=
EXTT1=
EXTT2=
EXTT3=
EXTT4=
EXTT5=
EXTT6=
EXTT7=
EXTT8=
PLAYORDER=
